# File created by Blade
# Date/Time:  Tue Sep 30 19:33:40 2014
#---------------------------------------------------------
:version 1.10
:name HOM
:units
  mass 1.0
  length 1.000000
  angle deg
:documentation
     Acclaim Skeleton File
:root
   axis xyz
   order TX TY TZ RX RY RZ
   position 0.000000 0.000000 0.000000
   orientation 0 0 0
:bonedata
   begin
      id 1
      name Spine_dum
      direction 0.000000 1.000000 0.000000
      length 3.241213
      axis 0.0 0.0 0.0 xyz
   end
   begin
      id 2
      name LeftUpLeg_dum
      direction 1.000000 0.000000 0.000000
      length 3.434019
      axis 0.0 0.0 0.0 xyz
   end
   begin
      id 3
      name RightUpLeg_dum
      direction -1.000000 0.000000 0.000000
      length 3.434019
      axis 0.0 0.0 0.0 xyz
   end
   begin
      id 4
      name Spine
      direction 0.000000 1.000000 0.000000
      length 0.000000
      axis 0.0 0.0 0.0 xyz
      dof rx ry rz
   end
   begin
      id 5
      name Spine_dum1
      direction 0.000000 1.000000 0.000000
      length 18.382958
      axis 0.0 0.0 0.0 xyz
   end
   begin
      id 6
      name Spine_dum2
      direction 0.000000 1.000000 0.000000
      length 12.828261
      axis 0.0 0.0 0.0 xyz
   end
   begin
      id 7
      name Spine_dum3
      direction 0.000000 1.000000 0.000000
      length 12.828261
      axis 0.0 0.0 0.0 xyz
   end
   begin
      id 8
      name Head
      direction 0.000000 1.000000 0.000000
      length 4.527550
      axis 0.0 0.0 0.0 xyz
      dof rx ry rz
   end
   begin
      id 9
      name LeftShoulder
      direction 1.000000 0.000000 0.000000
      length 7.748055
      axis 0.0 0.0 -90.0 xyz
      dof rx ry rz
   end
   begin
      id 10
      name LeftArm
      direction 1.000000 0.000000 0.000000
      length 10.635614
      axis 0.0 0.0 -90.0 xyz
      dof rx ry rz
   end
   begin
      id 11
      name LeftForeArm
      direction 1.000000 0.000000 0.000000
      length 8.346755
      axis 0.0 0.0 -90.0 xyz
      dof ry rz rx
   end
   begin
      id 12
      name LeftHand
      direction 0.000000 0.000000 0.000000
      length 0.000000
      axis 0.0 0.0 -90.0 xyz
      dof rx ry rz
   end
   begin
      id 13
      name LeftHand_dum1
      direction 0.000000 0.000000 0.000000
      length 0.000000
      axis 0.0 0.0 -90.0 xyz
   end
   begin
      id 14
      name LeftHand_dum2
      direction 1.000000 0.000000 0.000000
      length 3.937000
      axis 0.0 0.0 -90.0 xyz
   end
   begin
      id 15
      name LeftHandThumb1
      direction 0.000000 0.000000 1.000000
      length 3.937000
      axis 0.0 0.0 -90.0 xyz
      dof rx rz ry
   end
   begin
      id 16
      name RightShoulder
      direction -1.000000 0.000000 0.000000
      length 7.748055
      axis 0.0 0.0 90.0 xyz
      dof rx ry rz
   end
   begin
      id 17
      name RightArm
      direction -1.000000 0.000000 0.000000
      length 10.635614
      axis 0.0 0.0 90.0 xyz
      dof rx ry rz
   end
   begin
      id 18
      name RightForeArm
      direction -1.000000 0.000000 0.000000
      length 8.346755
      axis 0.0 0.0 90.0 xyz
      dof ry rz rx
   end
   begin
      id 19
      name RightHand
      direction 0.000000 0.000000 0.000000
      length 0.000000
      axis 0.0 0.0 90.0 xyz
      dof rx ry rz
   end
   begin
      id 20
      name RightHand_dum1
      direction 0.000000 0.000000 0.000000
      length 0.000000
      axis 0.0 0.0 90.0 xyz
   end
   begin
      id 21
      name RightHand_dum2
      direction -1.000000 0.000000 0.000000
      length 3.937000
      axis 0.0 0.0 90.0 xyz
   end
   begin
      id 22
      name RightHandThumb1
      direction 0.000000 0.000000 1.000000
      length 3.937000
      axis 0.0 0.0 90.0 xyz
      dof rx rz ry
   end
   begin
      id 23
      name LeftUpLeg
      direction 0.000000 -1.000000 0.000000
      length 15.713025
      axis 0.0 0.0 0.0 xyz
      dof rx ry rz
   end
   begin
      id 24
      name LeftLeg
      direction 0.000000 -1.000000 0.000000
      length 14.435119
      axis 0.0 0.0 0.0 xyz
      dof rx ry rz
   end
   begin
      id 25
      name LeftFoot
      direction 0.000000 -0.258819 0.965926
      length 4.938895
      axis 15.0 0.0 0.0 xyz
      dof rx ry rz
   end
   begin
      id 26
      name LeftToeBase
      direction 0.000000 0.000000 1.000000
      length 2.952750
      axis 0.0 0.0 0.0 xyz
      dof rx ry rz
   end
   begin
      id 27
      name RightUpLeg
      direction 0.000000 -1.000000 0.000000
      length 15.713025
      axis 0.0 0.0 0.0 xyz
      dof rx ry rz
   end
   begin
      id 28
      name RightLeg
      direction 0.000000 -1.000000 0.000000
      length 14.435119
      axis 0.0 0.0 0.0 xyz
      dof rx ry rz
   end
   begin
      id 29
      name RightFoot
      direction 0.000000 -0.258819 0.965926
      length 4.938895
      axis 15.0 0.0 0.0 xyz
      dof rx ry rz
   end
   begin
      id 30
      name RightToeBase
      direction 0.000000 0.000000 1.000000
      length 2.952750
      axis 0.0 0.0 0.0 xyz
      dof rx ry rz
   end
:hierarchy
   begin
      root Spine_dum LeftUpLeg_dum RightUpLeg_dum
      Spine_dum Spine
      LeftUpLeg_dum LeftUpLeg
      RightUpLeg_dum RightUpLeg
      Spine Spine_dum1 Spine_dum2 Spine_dum3
      Spine_dum1 Head
      Spine_dum2 LeftShoulder
      Spine_dum3 RightShoulder
      LeftShoulder LeftArm
      LeftArm LeftForeArm
      LeftForeArm LeftHand
      LeftHand LeftHand_dum1 LeftHand_dum2
      LeftHand_dum1 LeftHandThumb1
      RightShoulder RightArm
      RightArm RightForeArm
      RightForeArm RightHand
      RightHand RightHand_dum1 RightHand_dum2
      RightHand_dum1 RightHandThumb1
      LeftUpLeg LeftLeg
      LeftLeg LeftFoot
      LeftFoot LeftToeBase
      RightUpLeg RightLeg
      RightLeg RightFoot
      RightFoot RightToeBase
   end

# File created by Blade
# Date/Time:  Mon Sep 22 21:09:19 2014
# Frame Rate: 120.000 fps
#------------------------------------------------------
:FULLY-SPECIFIED
:DEGREES
452
root -0.905845 32.613417 -3.686600 -6.477970 51.534309 -33.364361
Spine -30.268064 -6.458316 25.020121
Head 11.194358 10.324227 9.248040
LeftShoulder -6.481712 47.315827 17.347187
LeftArm 71.474415 25.131107 -47.993618
LeftForeArm -34.021101 -0.000000 84.382625
LeftHand -15.268037 -0.000000 -7.602026
LeftHandThumb1 -26.253704 0.000000 33.147579
RightShoulder 0.532598 -43.064274 -23.763150
RightArm 81.025685 -20.008291 40.748945
RightForeArm 62.140277 -0.000000 70.957161
RightHand -2.301948 -0.000000 13.549149
RightHandThumb1 -24.326973 -0.000000 -32.862282
LeftUpLeg -33.473535 0.597035 18.197970
LeftLeg 32.986518 -0.000000 -0.000000
LeftFoot -17.015150 0.389253 8.872132
LeftToeBase -4.612099 -0.000000 0.000000
RightUpLeg -157.413071 4.192516 5.523239
RightLeg 38.536864 -0.000000 -0.000000
RightFoot 36.802974 -15.225761 19.201125
RightToeBase 40.631365 -0.000000 -0.000000
453
root -0.896988 32.641924 -3.649004 -7.106485 51.693203 -34.023251
Spine -30.430345 -6.661608 25.430401
Head 11.569110 10.193651 9.266079
LeftShoulder -6.191218 47.215131 17.440653
LeftArm 71.292447 24.994013 -48.161618
LeftForeArm -33.885976 -0.000000 84.468829
LeftHand -15.175292 -0.000000 -7.516362
LeftHandThumb1 -26.253704 0.000000 33.147579
RightShoulder 0.575781 -43.084305 -23.835655
RightArm 80.963169 -20.008773 41.083919
RightForeArm 61.824522 -0.000000 71.018387
RightHand -2.120379 -0.000000 13.342947
RightHandThumb1 -24.326973 -0.000000 -32.862282
LeftUpLeg -33.429608 0.480885 18.409475
LeftLeg 33.069558 -0.000000 -0.000000
LeftFoot -16.702912 1.291350 9.238564
LeftToeBase -5.049042 -0.000000 0.000000
RightUpLeg -157.556807 3.736452 5.784723
RightLeg 36.864627 -0.000000 -0.000000
RightFoot 36.690561 -14.913015 19.052919
RightToeBase 40.441841 -0.000000 -0.000000
454
root -0.889820 32.667606 -3.613158 -7.793759 51.868020 -34.687125
Spine -30.514201 -6.954840 25.825174
Head 11.837216 10.102534 9.340274
LeftShoulder -6.034237 47.221297 17.486299
LeftArm 71.252402 24.802030 -48.290265
LeftForeArm -33.764879 -0.000000 84.594138
LeftHand -15.206284 -0.000000 -7.397496
LeftHandThumb1 -26.253704 0.000000 33.147579
RightShoulder 0.604943 -42.992433 -23.924536
RightArm 80.845062 -20.093516 41.408244
RightForeArm 61.624386 -0.000000 71.137518
RightHand -1.879348 -0.000000 13.142438
RightHandThumb1 -24.326973 -0.000000 -32.862282
LeftUpLeg -33.371580 0.339443 18.559596
LeftLeg 33.200465 -0.000000 -0.000000
LeftFoot -16.400901 2.348404 9.384839
LeftToeBase -5.278471 -0.000000 0.000000
RightUpLeg -157.681292 3.238832 6.073880
RightLeg 35.330363 -0.000000 -0.000000
RightFoot 36.726657 -14.235767 18.713110
RightToeBase 40.193906 -0.000000 -0.000000
455
root -0.887500 32.693290 -3.575008 -8.679806 51.982084 -35.477820
Spine -30.442189 -7.306613 26.308929
Head 11.999319 10.106195 9.387301
LeftShoulder -6.018932 47.217333 17.413416
LeftArm 71.268582 24.595750 -48.345525
LeftForeArm -33.571657 -0.000000 84.703123
LeftHand -15.031590 -0.000000 -7.337529
LeftHandThumb1 -26.253704 0.000000 33.147579
RightShoulder 0.578282 -42.963026 -23.955447
RightArm 80.818467 -20.076377 41.657323
RightForeArm 61.354175 0.000000 71.304311
RightHand -1.750872 -0.000000 13.024343
RightHandThumb1 -24.326973 -0.000000 -32.862282
LeftUpLeg -33.272518 0.326931 18.720803
LeftLeg 33.457194 -0.000000 -0.000000
LeftFoot -16.069078 3.420031 9.464268
LeftToeBase -5.618588 -0.000000 0.000000
RightUpLeg -157.701089 2.828159 6.459935
RightLeg 33.784444 -0.000000 -0.000000
RightFoot 36.922512 -13.977902 18.401099
RightToeBase 39.933886 -0.000000 -0.000000
456
root -0.886292 32.717785 -3.541176 -9.523658 52.005236 -36.224496
Spine -30.312312 -7.588055 26.766377
Head 12.064488 10.125270 9.457331
LeftShoulder -6.074073 47.296868 17.301812
LeftArm 71.422746 24.352409 -48.318256
LeftForeArm -33.508015 -0.000000 84.779352
LeftHand -14.892300 0.000000 -7.478795
LeftHandThumb1 -26.253704 0.000000 33.147579
RightShoulder 0.586463 -42.876225 -24.003201
RightArm 80.659688 -20.081115 41.979028
RightForeArm 60.991088 -0.000000 71.578680
RightHand -1.680651 -0.000000 12.917631
RightHandThumb1 -24.326973 -0.000000 -32.862282
LeftUpLeg -33.193136 0.629739 18.690823
LeftLeg 33.771369 -0.000000 -0.000000
LeftFoot -15.739156 4.796489 9.762765
LeftToeBase -5.773437 -0.000000 0.000000
RightUpLeg -157.747041 2.513601 6.861262
RightLeg 32.352992 -0.000000 -0.000000
RightFoot 37.214885 -13.703033 18.033049
RightToeBase 39.787423 -0.000000 -0.000000
457
root -0.893194 32.740589 -3.503032 -10.550341 52.026267 -37.063101
Spine -30.049956 -7.963147 27.214221
Head 12.053174 10.156030 9.675478
LeftShoulder -6.115730 47.347624 17.262861
LeftArm 71.599713 24.127090 -48.341811
LeftForeArm -33.291200 -0.000000 84.834357
LeftHand -14.923931 -0.000000 -7.624243
LeftHandThumb1 -26.253704 0.000000 33.147579
RightShoulder 0.639276 -42.779221 -23.993164
RightArm 80.405931 -20.039027 42.323397
RightForeArm 60.662318 -0.000000 71.938071
RightHand -1.611394 -0.000000 12.757149
RightHandThumb1 -24.326973 -0.000000 -32.862282
LeftUpLeg -33.040045 0.935748 18.776407
LeftLeg 34.100797 -0.000000 -0.000000
LeftFoot -15.548327 5.738275 9.582087
LeftToeBase -5.781774 -0.000000 0.000000
RightUpLeg -157.666859 2.129687 7.276306
RightLeg 30.916957 -0.000000 -0.000000
RightFoot 37.474191 -13.801218 17.835666
RightToeBase 39.990948 -0.000000 -0.000000
458
root -0.904188 32.760228 -3.463345 -11.577061 52.062766 -37.862850
Spine -29.722472 -8.351910 27.535545
Head 11.925033 10.072132 10.001407
LeftShoulder -6.119333 47.235125 17.378375
LeftArm 71.761658 24.078011 -48.358021
LeftForeArm -33.065656 -0.000000 84.863147
LeftHand -14.955644 -0.000000 -7.528301
LeftHandThumb1 -26.253704 0.000000 33.147579
RightShoulder 0.544534 -42.799064 -23.801117
RightArm 80.212455 -19.884190 42.535106
RightForeArm 60.444235 -0.000000 72.359559
RightHand -1.559041 -0.000000 12.627488
RightHandThumb1 -24.326973 -0.000000 -32.862282
LeftUpLeg -32.810455 1.376425 18.739691
LeftLeg 34.285248 -0.000000 -0.000000
LeftFoot -15.364413 6.828905 9.676825
LeftToeBase -5.783172 -0.000000 0.000000
RightUpLeg -157.565718 1.684717 7.643602
RightLeg 29.539681 -0.000000 -0.000000
RightFoot 37.829798 -13.875251 17.528585
RightToeBase 39.737669 -0.000000 -0.000000
